# xmcd CD database file
#
# Track frame offsets:
#	150
#	12814
#	27151
#	38242
#	52805
#	66783
#	81912
#	95424
#	111069
#	127022
#	130579
#	145020
#	148726
#	166224
#	180956
#	193305
#	226218
#	272238
#
# Disc length: 3812 seconds
#
# Revision: 0
# Processed by: cddbd v1.5.1PL0 Copyright (c) Steve Scherf et al.
# Submitted via: Feurio! 1.67 - http://www.feurio.com
#
DISCID=f00ee212
DTITLE=South Mountain - Live At the Rattlesnake-Saloon
DYEAR=2004
DGENRE=Country
TTITLE0=Love Bug
TTITLE1=Singing Water Fall
TTITLE2=Columbus Stockade Blues
TTITLE3=Chew Tobacco Rag
TTITLE4=High Lonesome Sound
TTITLE5=Say Hello
TTITLE6=Saint Anne's Reel
TTITLE7=Mocking Bird
TTITLE8=Midnight Flyer
TTITLE9=Band Intro
TTITLE10=Cowboy's Aren't Supposed To Cry
TTITLE11=Bruno! Was That A Turkey?
TTITLE12=Silver Wings
TTITLE13=Treat Me Like A Fool
TTITLE14=Every Second
TTITLE15=One Way Rider
TTITLE16=Orange Blossom Special
TTITLE17=Black Mountain Rag
EXTD=
EXTT0=
EXTT1=
EXTT2=
EXTT3=
EXTT4=
EXTT5=
EXTT6=
EXTT7=
EXTT8=
EXTT9=
EXTT10=
EXTT11=
EXTT12=
EXTT13=
EXTT14=
EXTT15=
EXTT16=
EXTT17=
PLAYORDER=
